TITLE ""
FILE "Disc6Track44.mp3" MP3
  TRACK 01 AUDIO
    TITLE "Disc6Track44_01"
    INDEX 01 00:00:00
  TRACK 02 AUDIO
    TITLE "Disc6Track44_02"
    INDEX 01 00:01:12
  TRACK 03 AUDIO
    TITLE "Disc6Track44_03"
    INDEX 01 00:04:02
  TRACK 04 AUDIO
    TITLE "Disc6Track44_04"
    INDEX 01 00:05:25
  TRACK 05 AUDIO
    TITLE "Disc6Track44_05"
    INDEX 01 00:09:56
  TRACK 06 AUDIO
    TITLE "Disc6Track44_06"
    INDEX 01 00:10:11
  TRACK 07 AUDIO
    TITLE "Disc6Track44_07"
    INDEX 01 00:11:39
  TRACK 08 AUDIO
    TITLE "Disc6Track44_08"
    INDEX 01 00:12:35
  TRACK 09 AUDIO
    TITLE "Disc6Track44_09"
    INDEX 01 00:13:62
  TRACK 10 AUDIO
    TITLE "Disc6Track44_10"
    INDEX 01 00:15:61
  TRACK 11 AUDIO
    TITLE "Disc6Track44_11"
    INDEX 01 00:16:17
  TRACK 12 AUDIO
    TITLE "Disc6Track44_12"
    INDEX 01 00:17:32
  TRACK 13 AUDIO
    TITLE "Disc6Track44_13"
    INDEX 01 00:19:63
  TRACK 14 AUDIO
    TITLE "Disc6Track44_14"
    INDEX 01 00:21:01
  TRACK 15 AUDIO
    TITLE "Disc6Track44_15"
    INDEX 01 00:23:00
  TRACK 16 AUDIO
    TITLE "Disc6Track44_16"
    INDEX 01 00:23:31
  TRACK 17 AUDIO
    TITLE "Disc6Track44_17"
    INDEX 01 00:24:46
  TRACK 18 AUDIO
    TITLE "Disc6Track44_18"
    INDEX 01 00:26:23
  TRACK 19 AUDIO
    TITLE "Disc6Track44_19"
    INDEX 01 00:27:39
  TRACK 20 AUDIO
    TITLE "Disc6Track44_20"
    INDEX 01 00:29:30
  TRACK 21 AUDIO
    TITLE "Disc6Track44_21"
    INDEX 01 00:29:61
  TRACK 22 AUDIO
    TITLE "Disc6Track44_22"
    INDEX 01 00:31:05
  TRACK 23 AUDIO
    TITLE "Disc6Track44_23"
    INDEX 01 00:33:14
  TRACK 24 AUDIO
    TITLE "Disc6Track44_24"
    INDEX 01 00:34:31
  TRACK 25 AUDIO
    TITLE "Disc6Track44_25"
    INDEX 01 00:37:39
  TRACK 26 AUDIO
    TITLE "Disc6Track44_26"
    INDEX 01 00:37:68
  TRACK 27 AUDIO
    TITLE "Disc6Track44_27"
    INDEX 01 00:39:30
  TRACK 28 AUDIO
    TITLE "Disc6Track44_28"
    INDEX 01 00:40:31
  TRACK 29 AUDIO
    TITLE "Disc6Track44_29"
    INDEX 01 00:41:72
  TRACK 30 AUDIO
    TITLE "Disc6Track44_30"
    INDEX 01 00:42:28
  TRACK 31 AUDIO
    TITLE "Disc6Track44_31"
    INDEX 01 00:43:40
  TRACK 32 AUDIO
    TITLE "Disc6Track44_32"
    INDEX 01 00:45:31
  TRACK 33 AUDIO
    TITLE "Disc6Track44_33"
    INDEX 01 00:46:40
  TRACK 34 AUDIO
    TITLE "Disc6Track44_34"
    INDEX 01 00:48:23
  TRACK 35 AUDIO
    TITLE "Disc6Track44_35"
    INDEX 01 00:48:54
  TRACK 36 AUDIO
    TITLE "Disc6Track44_36"
    INDEX 01 00:49:64
  TRACK 37 AUDIO
    TITLE "Disc6Track44_37"
    INDEX 01 00:52:25
  TRACK 38 AUDIO
    TITLE "Disc6Track44_38"
    INDEX 01 00:53:32
  TRACK 39 AUDIO
    TITLE "Disc6Track44_39"
    INDEX 01 00:55:52
  TRACK 40 AUDIO
    TITLE "Disc6Track44_40"
    INDEX 01 00:56:07
  TRACK 41 AUDIO
    TITLE "Disc6Track44_41"
    INDEX 01 00:57:26
  TRACK 42 AUDIO
    TITLE "Disc6Track44_42"
    INDEX 01 00:58:19
  TRACK 43 AUDIO
    TITLE "Disc6Track44_43"
    INDEX 01 00:59:37
  TRACK 44 AUDIO
    TITLE "Disc6Track44_44"
    INDEX 01 01:01:53
  TRACK 45 AUDIO
    TITLE "Disc6Track44_45"
    INDEX 01 01:02:09
  TRACK 46 AUDIO
    TITLE "Disc6Track44_46"
    INDEX 01 01:03:23
  TRACK 47 AUDIO
    TITLE "Disc6Track44_47"
    INDEX 01 01:05:59
  TRACK 48 AUDIO
    TITLE "Disc6Track44_48"
    INDEX 01 01:06:72
  TRACK 49 AUDIO
    TITLE "Disc6Track44_49"
    INDEX 01 01:09:47
  TRACK 50 AUDIO
    TITLE "Disc6Track44_50"
    INDEX 01 01:10:03
  TRACK 51 AUDIO
    TITLE "Disc6Track44_51"
    INDEX 01 01:11:42
  TRACK 52 AUDIO
    TITLE "Disc6Track44_52"
    INDEX 01 01:16:04
  TRACK 53 AUDIO
    TITLE "Disc6Track44_53"
    INDEX 01 01:17:38
  TRACK 54 AUDIO
    TITLE "Disc6Track44_54"
    INDEX 01 01:20:49
  TRACK 55 AUDIO
    TITLE "Disc6Track44_55"
    INDEX 01 01:21:01
  TRACK 56 AUDIO
    TITLE "Disc6Track44_56"
    INDEX 01 01:22:42
  TRACK 57 AUDIO
    TITLE "Disc6Track44_57"
    INDEX 01 01:25:01
  TRACK 58 AUDIO
    TITLE "Disc6Track44_58"
    INDEX 01 01:26:41
  TRACK 59 AUDIO
    TITLE "Disc6Track44_59"
    INDEX 01 01:26:69
  TRACK 60 AUDIO
    TITLE "Disc6Track44_60"
    INDEX 01 01:28:11
  TRACK 61 AUDIO
    TITLE "Disc6Track44_61"
    INDEX 01 01:31:52
  TRACK 62 AUDIO
    TITLE "Disc6Track44_62"
    INDEX 01 01:32:67
  TRACK 63 AUDIO
    TITLE "Disc6Track44_63"
    INDEX 01 01:36:20
  TRACK 64 AUDIO
    TITLE "Disc6Track44_64"
    INDEX 01 01:36:49
  TRACK 65 AUDIO
    TITLE "Disc6Track44_65"
    INDEX 01 01:38:01
  TRACK 66 AUDIO
    TITLE "Disc6Track44_66"
    INDEX 01 01:40:08
  TRACK 67 AUDIO
    TITLE "Disc6Track44_67"
    INDEX 01 01:41:35
  TRACK 68 AUDIO
    TITLE "Disc6Track44_68"
    INDEX 01 01:41:70
  TRACK 69 AUDIO
    TITLE "Disc6Track44_69"
    INDEX 01 01:43:08
  TRACK 70 AUDIO
    TITLE "Disc6Track44_70"
    INDEX 01 01:44:22
  TRACK 71 AUDIO
    TITLE "Disc6Track44_71"
    INDEX 01 01:45:35
  TRACK 72 AUDIO
    TITLE "Disc6Track44_72"
    INDEX 01 01:49:42
  TRACK 73 AUDIO
    TITLE "Disc6Track44_73"
    INDEX 01 01:49:74
  TRACK 74 AUDIO
    TITLE "Disc6Track44_74"
    INDEX 01 01:51:22
  TRACK 75 AUDIO
    TITLE "Disc6Track44_75"
    INDEX 01 01:52:23
  TRACK 76 AUDIO
    TITLE "Disc6Track44_76"
    INDEX 01 01:53:46
  TRACK 77 AUDIO
    TITLE "Disc6Track44_77"
    INDEX 01 01:55:41
